<svg xmlns="http://www.w3.org/2000/svg" xmlns:xlink="http://www.w3.org/1999/xlink" viewBox="0 0 1081.48 720.46"><defs><style>.cls-1,.cls-10,.cls-5,.cls-6,.cls-8{fill:none;}.cls-2{clip-path:url(#clip-path);}.cls-3{fill:#ffc1c6;}.cls-4{fill:#fe818b;}.cls-5{stroke:#2e1112;}.cls-10,.cls-5,.cls-6{stroke-linecap:round;stroke-linejoin:round;}.cls-6{stroke:#fff;}.cls-7{fill:#fe5c5e;}.cls-8{stroke:#fe4642;stroke-miterlimit:10;stroke-width:2px;}.cls-9{fill:#2e1112;}.cls-10{stroke:#fe5c5e;}.cls-11{fill:#fff;}.cls-12{fill:#bf3934;}.cls-13{fill:#fe4642;}</style><clipPath id="clip-path" transform="translate(6.84 22.7)"><rect class="cls-1" width="900.11" height="563.92"/></clipPath></defs><g id="Layer_2" data-name="Layer 2"><g id="Layer_5" data-name="Layer 5"><g class="cls-2"><path class="cls-3" d="M893.28,83.15a106.76,106.76,0,0,0-32.13,82.46l99.48,29.27c6.3-46.09,10-94.44,16.34-140.54A106.79,106.79,0,0,0,893.28,83.15Z" transform="translate(6.84 22.7)"/><path class="cls-3" d="M1006,425c-42.54-17.66-93.82-12.43-131.94,13.44S812.13,510,812.84,556.1s25.9,91,64.79,115.71C922,700,978.21,700.91,1030.34,694.55Z" transform="translate(6.84 22.7)"/><path class="cls-3" d="M473.71,528.33A75.84,75.84,0,0,1,411,535.15c-20.57-7-37.05-25.4-44.93-45.65a123.86,123.86,0,0,0-135.38,91c-16.81-2.09-36.59,2.11-49.62,12.95a63,63,0,0,0-22.32,44.11L515.49,647C526.67,603.79,508.58,556.17,473.71,528.33Z" transform="translate(6.84 22.7)"/><polygon class="cls-4" points="1081.48 229.87 1072.64 214.11 1056.89 222.95 1048.05 207.2 1032.3 216.04 1023.46 200.28 1007.7 209.12 998.86 193.37 983.11 202.21 974.27 186.45 958.52 195.29 949.68 179.54 933.92 188.38 925.08 172.62 909.33 181.46 900.49 165.71 884.74 174.55 875.9 158.79 860.14 167.63 851.3 151.88 835.55 160.72 762.64 420 771.48 435.75 787.24 426.91 796.08 442.67 811.83 433.83 820.67 449.58 836.42 440.74 845.26 456.5 861.02 447.66 869.86 463.41 885.61 454.57 894.45 470.33 910.21 461.49 919.04 477.24 934.8 468.4 943.64 484.16 959.39 475.32 968.23 491.07 983.98 482.23 992.82 497.99 1008.58 489.15 1081.48 229.87"/><line class="cls-5" x1="833.67" y1="167.39" x2="1079.61" y2="236.54"/><line class="cls-5" x1="1010.45" y1="482.47" x2="764.52" y2="413.32"/><circle class="cls-3" cx="922.06" cy="324.93" r="108.29"/><path class="cls-6" d="M936,228.52a76.58,76.58,0,0,0-94.44,53" transform="translate(6.84 22.7)"/><path class="cls-5" d="M890,391.83a93.08,93.08,0,0,0,114.79-64.4" transform="translate(6.84 22.7)"/><path class="cls-7" d="M210,541.06c32.31-35.7-13.61-61.9-16.81-29.87l0,0c-29.1-13.85-30.59,39,16.81,29.87Z" transform="translate(6.84 22.7)"/><path class="cls-8" d="M128.28,602l4-35.46a4.57,4.57,0,0,1,6.53-3.59h0a4.57,4.57,0,0,1,1.23,7.35l-25.32,25.15" transform="translate(6.84 22.7)"/><circle class="cls-9" cx="2.7" cy="619.68" r="2.7"/><circle class="cls-9" cx="134.91" cy="544.29" r="2.7"/><circle class="cls-3" cx="289.59" cy="501.1" r="2.7"/><polygon class="cls-3" points="84.97 601.44 69.27 596.49 72.83 612.57 84.97 601.44"/><path class="cls-7" d="M629.74,231.65c48.13,1.44,38.29-50.5,11.83-32.16l0,0c-8.33-31.12-49.55,2-11.83,32.17Z" transform="translate(6.84 22.7)"/><path class="cls-8" d="M508.06,309.79l-23.71-26.67a4.57,4.57,0,0,1,1.68-7.26h0a4.57,4.57,0,0,1,6.3,4l1.82,35.64" transform="translate(6.84 22.7)"/><path class="cls-8" d="M765.87,157.37l4.6-35.39a4.57,4.57,0,0,1,6.59-3.48h0a4.57,4.57,0,0,1,1.11,7.37L752.44,150.6" transform="translate(6.84 22.7)"/><circle class="cls-3" cx="572.55" cy="213.77" r="2.7"/><circle class="cls-9" cx="895.57" cy="2.7" r="2.7"/><polygon class="cls-9" points="560.72 286.9 556.46 271 544.82 282.64 560.72 286.9"/><polygon class="cls-3" points="875.51 72.12 880.59 56.45 864.49 59.88 875.51 72.12"/><path class="cls-10" d="M691.58,220.82A28.74,28.74,0,0,1,733.5,197" transform="translate(6.84 22.7)"/><path class="cls-7" d="M777.69,218.75a36,36,0,0,0-19.16-24.55c-9.66-4.7-22.18-3.87-31.82.88a26.39,26.39,0,0,0-31.21,30.45,23.36,23.36,0,0,0-24.31,8.27,22.81,22.81,0,0,0-.7,25.33,12.68,12.68,0,0,0,2.46,24l79.29-6.48c7.24-8.23,14.54-16.55,19.69-26.23S779.94,229.47,777.69,218.75Z" transform="translate(6.84 22.7)"/><path class="cls-11" d="M901.92,445.13A156.87,156.87,0,0,0,881.21,342.9c-18.3-30.38-46.66-54.72-80.94-63.77-16.39-4.33-33.5-8.23-49.89-12.56a19.54,19.54,0,0,1-16,6.23c-5.9-.54-10.92-4.34-14-9.37L667.71,271c-18.58,2.67-35.21,12.91-49.23,25.4-8,81.65-15.07,164.24-23.09,245.89,44.4,10.14,82.76,50.2,89.07,95.3l203.34,3.59c-9.95-40.12-20.75-78.9-30.7-119C884.22,506.79,897.5,476,901.92,445.13Z" transform="translate(6.84 22.7)"/><path class="cls-5" d="M700.28,267.66c6,13.44,19.16,23.8,33.82,25.25s30.15-6.82,36-20.36" transform="translate(6.84 22.7)"/><path class="cls-5" d="M732.65,292.71l-10.09,69.74" transform="translate(6.84 22.7)"/><path class="cls-5" d="M857.68,522.25a85.9,85.9,0,0,1-38.4,11.81" transform="translate(6.84 22.7)"/><path class="cls-5" d="M820.34,288.1c-1.83,42.6-1.05,90.57,2.76,133,3.16-2,6.3-4.35,9.46-6.37" transform="translate(6.84 22.7)"/><path class="cls-5" d="M775.76,437.25l47.34-16.1c8.42-2.87,18.1,1.56,25,7.17" transform="translate(6.84 22.7)"/><path class="cls-7" d="M772.85,362.11a141.33,141.33,0,0,1-6-15.26,142.37,142.37,0,0,1-15.54,6.71l1.8-4.23L749,347.38a133.27,133.27,0,0,0,16-7c-4.38-17.76-.21-26.12,3.39-29.85a13.09,13.09,0,0,1,14.72-3.05,13.33,13.33,0,0,1,8.25,12.67c-.11,5.19-3.09,14-18.63,23.42a131.11,131.11,0,0,0,6.15,15.79l-4.3-1.68Zm4.42-49a6.63,6.63,0,0,0-4.17,2.05c-1.64,1.7-5.34,7.35-2.17,21.81,12.36-7.94,13.76-14.55,13.8-16.91a6.69,6.69,0,0,0-4.18-6.44A6.86,6.86,0,0,0,777.27,313.07Z" transform="translate(6.84 22.7)"/><path class="cls-3" d="M599.89,328.58c-13.57-1.09-27.61-1.21-41.18-2.3l-43.86,24.64c-6.29,12-13.19,24.1-21.36,35l118-31.89C608.13,345,603.29,337.52,599.89,328.58Z" transform="translate(6.84 22.7)"/><path class="cls-3" d="M761.27,273.09c-3-.57-6.35-1.84-9.34-2.4,1.22-4.75,2.55-8.94,3.76-13.7a13.11,13.11,0,0,0,18.56-15.4c-1.38-4.63-5.71-8.39-10.54-8.58-1.9,1.9-3.4,3.2-5.3,5.1a4.47,4.47,0,0,1-3.85-3.55c-.24-1.72.1-3.5-.26-5.2-.79-3.66-4.58-5.88-8.2-6.82s-7.51-1.09-10.85-2.79A13.24,13.24,0,0,1,729,204.06c-6.31,1.18-12.67,5.42-15.45,11.22-3.25,6.79-6.43,13.67-6.78,21.2-.4,9,3.85,18.12,12.09,21.7-.41,3.12-1.53,6.13-1.94,9.25-2.58.4-5.61.4-8.19.81,5.08,9.37,13.69,16,24.3,17.12S754.4,281.24,761.27,273.09Z" transform="translate(6.84 22.7)"/><path class="cls-5" d="M761.42,243l7.43-1.74" transform="translate(6.84 22.7)"/><path class="cls-5" d="M718,259a25.47,25.47,0,0,0,21.64,2.71" transform="translate(6.84 22.7)"/><path class="cls-10" d="M729.93,202.92A13.55,13.55,0,0,0,731.34,221" transform="translate(6.84 22.7)"/><path class="cls-5" d="M714.72,225.21a4.3,4.3,0,0,1,6.62,3.4" transform="translate(6.84 22.7)"/><path class="cls-5" d="M739.94,233.27a5.3,5.3,0,0,1,9.21.44" transform="translate(6.84 22.7)"/><path class="cls-5" d="M729.71,229.32l-3.07,7.79,3.73.59" transform="translate(6.84 22.7)"/><path class="cls-5" d="M715.22,215.35a7.86,7.86,0,0,1,9.83,1.88" transform="translate(6.84 22.7)"/><path class="cls-5" d="M738.9,223.45l8.73.18" transform="translate(6.84 22.7)"/><path class="cls-5" d="M731.4,242.51a4.13,4.13,0,0,0,7.49-1" transform="translate(6.84 22.7)"/><rect class="cls-11" x="392.4" y="231.66" width="45.25" height="165.4" rx="9.06" transform="translate(902.7 536.73) rotate(165.41)"/><rect class="cls-3" x="399.24" y="264.96" width="11.17" height="20.44" rx="1.24" transform="translate(872.76 462.2) rotate(165.41)"/><rect class="cls-3" x="407.98" y="302.63" width="16.46" height="32.61" rx="1.24" transform="matrix(-0.97, 0.25, -0.25, -0.97, 906.19, 545.43)"/><path class="cls-5" d="M409.88,297.54l6.93-1.81a7.1,7.1,0,0,1,8.65,5.08l5.43,20.83" transform="translate(6.84 22.7)"/><path class="cls-5" d="M416,275.08l-2.74-10.55a7.1,7.1,0,0,0-8.65-5.08l-4.23,1.1" transform="translate(6.84 22.7)"/><line class="cls-5" x1="389.63" y1="284.39" x2="419" y2="397.21"/><path class="cls-12" d="M384.87,431.55c.76-12,1.41-24,2.18-36.05,2.17-2.39,4.32-4.56,6.53-6.91a6,6,0,0,0-5.1-10.12,7.64,7.64,0,0,0,1.65-8,7.46,7.46,0,0,0-6.6-4.56q17.25-3,34.23-7.44a17,17,0,0,0,6.47-2.71c1.85-1.47,3.14-3.85,2.38-6.08l-10.05-.39a18.18,18.18,0,0,0,5.52-2.2,5.63,5.63,0,0,0,2.55-4.84l-55.88-12.84c-11,9.13-22.25,18.14-33.24,27.26-14.91,29.36-18.57,65.07-14.1,77.77C321.41,434.49,359.53,456.75,384.87,431.55Z" transform="translate(6.84 22.7)"/><path class="cls-5" d="M371.1,346.94l49.54,1.82" transform="translate(6.84 22.7)"/><path class="cls-5" d="M372.36,365.82l13.65-.5" transform="translate(6.84 22.7)"/><path class="cls-5" d="M389.59,377.84,374.9,383.6" transform="translate(6.84 22.7)"/><path class="cls-7" d="M847.91,633a1290.48,1290.48,0,0,0-50.84-179.3c-7.71-21.22-16.15-42.56-29.89-60.48a98,98,0,0,0-56.11-35.56c-26.54-5.88-53.79-11-80.33-16.89a18.38,18.38,0,0,1-15.88,8.35c-6.26-.24-11.72-2.92-14.67-8.44l-92.9,34c-38.18,14-66.8,46.74-84.42,83.38-11.45-13.16-22.56-26.51-34-39.67-9.55,11.35-25,17.13-39.81,16a48,48,0,0,1-36.65-22.24c7.66,50.57,23.35,100.51,47.49,145.6,8.79,16.42,28.5,25.31,46.87,28.43A73.32,73.32,0,0,0,460,574.42c-2.92,15.56-6.1,29.84-9,45.39Z" transform="translate(6.84 22.7)"/><path class="cls-5" d="M576.44,350.33A47.87,47.87,0,0,0,660.6,348" transform="translate(6.84 22.7)"/><path class="cls-5" d="M458.82,577.45C477.05,491.26,496,380.19,496,380.19" transform="translate(6.84 22.7)"/><path class="cls-5" d="M728.13,364.09,711.72,622.42" transform="translate(6.84 22.7)"/><path class="cls-5" d="M714.74,590.21,746,563.85" transform="translate(6.84 22.7)"/><path class="cls-5" d="M422.23,456.27A225.07,225.07,0,0,1,453.52,503" transform="translate(6.84 22.7)"/><path class="cls-5" d="M439.15,476.27l8.68,8" transform="translate(6.84 22.7)"/><path class="cls-5" d="M322,450.73a64.78,64.78,0,0,0,79.8-15.27" transform="translate(6.84 22.7)"/><path class="cls-5" d="M325.21,432.11l2.89,21" transform="translate(6.84 22.7)"/><path class="cls-5" d="M340.79,436.89l3.58,20.47" transform="translate(6.84 22.7)"/><path class="cls-5" d="M351.33,437.92l3.41,19.74" transform="translate(6.84 22.7)"/><path class="cls-5" d="M370.46,435.18l6.33,17.69" transform="translate(6.84 22.7)"/><path class="cls-5" d="M382.71,427.81l8.8,16.45" transform="translate(6.84 22.7)"/><path class="cls-11" d="M595.32,566.1c152.41-78.55,59.78-183,9.51-129h-.1c-41.74-59.11-148,26.42-9.51,129Z" transform="translate(6.84 22.7)"/><path class="cls-13" d="M617.19,543.53a260.47,260.47,0,0,1-19-23.38,260.89,260.89,0,0,1-23.47,20.36l.81-8.4L567.29,531a242.32,242.32,0,0,0,24.08-21.08c-17.51-28.65-14.85-45.59-10.61-54.12a24.06,24.06,0,0,1,24.08-13.5,24.47,24.47,0,0,1,21.45,17.61c2.69,9.14,2.36,26.25-19.62,51.32a243.64,243.64,0,0,0,19.5,24.23l-8.45-.56Zm-19.44-88.28a12.06,12.06,0,0,0-6.15,5.9c-1.93,3.87-5.27,15.82,8.28,39.37,17.23-20.75,16-33.08,14.79-37.24a12.31,12.31,0,0,0-10.89-9A12.92,12.92,0,0,0,597.75,455.25Z" transform="translate(6.84 22.7)"/><path class="cls-5" d="M598,264.44a22.76,22.76,0,0,0-22.54,10.39" transform="translate(6.84 22.7)"/><path class="cls-5" d="M641.54,262.09l-.71,5.54,5.12-3.09" transform="translate(6.84 22.7)"/><path class="cls-9" d="M650.17,287.59A32.72,32.72,0,0,0,596.53,264a33.5,33.5,0,0,0-10.3,3.12,14.57,14.57,0,0,0-7.11,7.8c-1.16,3.41,0,8.63,2.75,11a8.93,8.93,0,1,0,3.2,17.43c1,2.84,1.44,5.44,2.4,8.29l57.44-3.51A11.14,11.14,0,0,0,657.85,300C659.05,294.41,655.74,288.69,650.17,287.59Z" transform="translate(6.84 22.7)"/><path class="cls-3" d="M579.78,336c1.14,4.86-.66,10-3.64,14s-7,7-11,10l-22.77,17c-1.82,1.36-3.75,2.76-6,3.09s-5.24-.58-5.75-2.8l22-37.6C557.26,331.74,571.76,331.41,579.78,336Z" transform="translate(6.84 22.7)"/><path class="cls-5" d="M537.65,363.81l9.07-16.11" transform="translate(6.84 22.7)"/><path class="cls-12" d="M649.71,348.45c-3.94-1.08-8.41-1.77-12.35-2.86-.23-6.24-1.43-12.24-1.66-18.49A15.51,15.51,0,0,0,648,321.17a12.7,12.7,0,0,0,1.13-13.36c-2.28-4.13-7.5-6.54-12-5.2-1.1-2.76-3.11-6.32-4.21-9.08-2,2.15-5.57,2.12-8.32,1.06a7.58,7.58,0,0,1-4.74-6.81c-2.42,3.22-7.86,3.32-11.8,2.48a10.89,10.89,0,0,1-8.15-8.06c-4.19-.4-8.88,2.22-11.06,5.82s-2.93,7.86-3.61,12c-1.14,7-2.18,14.26-.56,21.18s6.52,13.55,13.46,15.11c-.16,3.26-.37,6.82-.53,10.07-3.51,1.14-7.49,2.06-11,3.19a37.72,37.72,0,0,0,32,16.85C631.48,366.23,642.79,359.38,649.71,348.45Z" transform="translate(6.84 22.7)"/><path class="cls-5" d="M637.45,312.35l6.44-2.86" transform="translate(6.84 22.7)"/><path class="cls-5" d="M597.76,336.62A27.89,27.89,0,0,0,618,337" transform="translate(6.84 22.7)"/><path class="cls-5" d="M606.25,306.72l-.8,10.53,4.72-.15" transform="translate(6.84 22.7)"/><path class="cls-5" d="M588.37,298.56a5.84,5.84,0,0,1,10.48.35" transform="translate(6.84 22.7)"/><path class="cls-5" d="M616,299.07a7.15,7.15,0,0,1,11.11.72" transform="translate(6.84 22.7)"/><circle class="cls-9" cx="602.11" cy="331.18" r="2.15"/><circle class="cls-9" cx="628.38" cy="331.51" r="2.15"/><path class="cls-5" d="M609.76,321.73a4.23,4.23,0,0,0,7.54-2.5" transform="translate(6.84 22.7)"/><path class="cls-5" d="M599.73,280.06a12.07,12.07,0,0,0,5.46,12.17" transform="translate(6.84 22.7)"/></g></g></g></svg>