<svg xmlns="http://www.w3.org/2000/svg" xmlns:xlink="http://www.w3.org/1999/xlink" viewBox="0 0 267.15 293.38"><defs><style>.cls-1{isolation:isolate;}.cls-2{fill:url(#linear-gradient);}.cls-3{fill:url(#linear-gradient-2);}.cls-4{mix-blend-mode:multiply;}.cls-5{fill:#fff;opacity:0;}.cls-6{fill:#fcfcfc;opacity:0.02;}.cls-7{fill:#f8f8f9;opacity:0.04;}.cls-8{fill:#f5f5f6;opacity:0.06;}.cls-9{fill:#f2f2f3;opacity:0.08;}.cls-10{fill:#eeeff0;opacity:0.1;}.cls-11{fill:#ebebee;opacity:0.12;}.cls-12{fill:#e7e8eb;opacity:0.14;}.cls-13{fill:#e4e5e8;opacity:0.16;}.cls-14{fill:#e1e1e5;opacity:0.18;}.cls-15{fill:#dddee2;opacity:0.2;}.cls-16{fill:#dadbdf;opacity:0.22;}.cls-17{fill:#d7d7dc;opacity:0.24;}.cls-18{fill:#d3d4d9;opacity:0.25;}.cls-19{fill:#d0d1d6;opacity:0.27;}.cls-20{fill:#ccced3;opacity:0.29;}.cls-21{fill:#c9cad1;opacity:0.31;}.cls-22{fill:#c6c7ce;opacity:0.33;}.cls-23{fill:#c2c4cb;opacity:0.35;}.cls-24{fill:#bfc0c8;opacity:0.37;}.cls-25{fill:#bcbdc5;opacity:0.39;}.cls-26{fill:#b8bac2;opacity:0.41;}.cls-27{fill:#b5b7bf;opacity:0.43;}.cls-28{fill:#b1b3bc;opacity:0.45;}.cls-29{fill:#aeb0b9;opacity:0.47;}.cls-30{fill:#abadb6;opacity:0.49;}.cls-31{fill:#a7a9b4;opacity:0.51;}.cls-32{fill:#a4a6b1;opacity:0.53;}.cls-33{fill:#a1a3ae;opacity:0.55;}.cls-34{fill:#9d9fab;opacity:0.57;}.cls-35{fill:#9a9ca8;opacity:0.59;}.cls-36{fill:#9699a5;opacity:0.61;}.cls-37{fill:#9396a2;opacity:0.63;}.cls-38{fill:#90929f;opacity:0.65;}.cls-39{fill:#8c8f9c;opacity:0.67;}.cls-40{fill:#898c99;opacity:0.69;}.cls-41{fill:#868897;opacity:0.71;}.cls-42{fill:#828594;opacity:0.73;}.cls-43{fill:#7f8291;opacity:0.75;}.cls-44{fill:#7b7f8e;opacity:0.76;}.cls-45{fill:#787b8b;opacity:0.78;}.cls-46{fill:#757888;opacity:0.8;}.cls-47{fill:#717585;opacity:0.82;}.cls-48{fill:#6e7182;opacity:0.84;}.cls-49{fill:#6b6e7f;opacity:0.86;}.cls-50{fill:#676b7c;opacity:0.88;}.cls-51{fill:#64677a;opacity:0.9;}.cls-52{fill:#606477;opacity:0.92;}.cls-53{fill:#5d6174;opacity:0.94;}.cls-54{fill:#5a5e71;opacity:0.96;}.cls-55{fill:#565a6e;opacity:0.98;}.cls-56{fill:#53576b;}.cls-57{fill:url(#Áåçûìÿííûé_ãðàäèåíò_6);}.cls-58{fill:url(#Áåçûìÿííûé_ãðàäèåíò_61);}.cls-59{fill:#666;}</style><linearGradient id="linear-gradient" x1="127.44" y1="281.49" x2="184.42" y2="218.56" gradientUnits="userSpaceOnUse"><stop offset="0" stop-color="#e6e6e6"/><stop offset="1" stop-color="#666"/></linearGradient><linearGradient id="linear-gradient-2" x1="0" y1="131.1" x2="262.2" y2="131.1" xlink:href="#linear-gradient"/><linearGradient id="Áåçûìÿííûé_ãðàäèåíò_6" x1="-2232.42" y1="2347.71" x2="-2087.74" y2="2492.39" gradientTransform="matrix(-0.71, 0.71, 0.71, 0.71, -3107.54, -54.47)" gradientUnits="userSpaceOnUse"><stop offset="0" stop-color="#e2e1e6"/><stop offset="0.84" stop-color="#fff"/></linearGradient><linearGradient id="Áåçûìÿííûé_ãðàäèåíò_61" x1="-769.89" y1="676.94" x2="-557.92" y2="676.94" gradientTransform="matrix(0.71, 0.71, 0.71, -0.71, 121.89, 1078.63)" gradientUnits="userSpaceOnUse"><stop offset="0" stop-color="#fff"/><stop offset="1" stop-color="#e6e6e6"/></linearGradient></defs><g class="cls-1"><g id="Layer_2" data-name="Layer 2"><g id="Ñëîé_3" data-name="Ñëîé 3"><polygon class="cls-2" points="220.38 226.78 133.57 226.78 133.57 293.38 220.38 226.78 220.38 226.78"/><rect class="cls-3" width="262.2" height="262.2" rx="131.1"/><g class="cls-4"><circle class="cls-5" cx="167.27" cy="166.68" r="99.88"/><circle class="cls-6" cx="166.58" cy="165.99" r="99.88"/><circle class="cls-7" cx="165.88" cy="165.3" r="99.88"/><circle class="cls-8" cx="165.19" cy="164.61" r="99.88"/><circle class="cls-9" cx="164.5" cy="163.92" r="99.88"/><circle class="cls-10" cx="163.81" cy="163.22" r="99.88"/><circle class="cls-11" cx="163.11" cy="162.53" r="99.88"/><circle class="cls-12" cx="162.42" cy="161.84" r="99.88"/><circle class="cls-13" cx="161.73" cy="161.15" r="99.88"/><circle class="cls-14" cx="161.04" cy="160.45" r="99.88"/><circle class="cls-15" cx="160.34" cy="159.76" r="99.88"/><circle class="cls-16" cx="159.65" cy="159.07" r="99.88"/><circle class="cls-17" cx="158.96" cy="158.38" r="99.88"/><circle class="cls-18" cx="158.27" cy="157.68" r="99.88"/><circle class="cls-19" cx="157.57" cy="156.99" r="99.88"/><circle class="cls-20" cx="156.88" cy="156.3" r="99.88"/><circle class="cls-21" cx="156.19" cy="155.61" r="99.88"/><circle class="cls-22" cx="155.5" cy="154.91" r="99.88"/><circle class="cls-23" cx="154.8" cy="154.22" r="99.88"/><circle class="cls-24" cx="154.11" cy="153.53" r="99.88"/><circle class="cls-25" cx="153.42" cy="152.84" r="99.88"/><circle class="cls-26" cx="152.73" cy="152.14" r="99.88"/><circle class="cls-27" cx="152.03" cy="151.45" r="99.88"/><circle class="cls-28" cx="151.34" cy="150.76" r="99.88"/><circle class="cls-29" cx="150.65" cy="150.07" r="99.88"/><circle class="cls-30" cx="149.96" cy="149.37" r="99.88"/><circle class="cls-31" cx="149.26" cy="148.68" r="99.88"/><circle class="cls-32" cx="148.57" cy="147.99" r="99.88"/><circle class="cls-33" cx="147.88" cy="147.3" r="99.88"/><circle class="cls-34" cx="147.19" cy="146.6" r="99.88"/><circle class="cls-35" cx="146.49" cy="145.91" r="99.88"/><circle class="cls-36" cx="145.8" cy="145.22" r="99.88"/><circle class="cls-37" cx="145.11" cy="144.53" r="99.88"/><circle class="cls-38" cx="144.42" cy="143.83" r="99.88"/><circle class="cls-39" cx="143.72" cy="143.14" r="99.88"/><circle class="cls-40" cx="143.03" cy="142.45" r="99.88"/><circle class="cls-41" cx="142.34" cy="141.76" r="99.88"/><circle class="cls-42" cx="141.65" cy="141.06" r="99.88"/><circle class="cls-43" cx="140.95" cy="140.37" r="99.88"/><circle class="cls-44" cx="140.26" cy="139.68" r="99.88"/><circle class="cls-45" cx="139.57" cy="138.99" r="99.88"/><circle class="cls-46" cx="138.88" cy="138.29" r="99.88"/><circle class="cls-47" cx="138.18" cy="137.6" r="99.88"/><circle class="cls-48" cx="137.49" cy="136.91" r="99.88"/><circle class="cls-49" cx="136.8" cy="136.22" r="99.88"/><circle class="cls-50" cx="136.11" cy="135.52" r="99.88"/><circle class="cls-51" cx="135.41" cy="134.83" r="99.88"/><circle class="cls-52" cx="134.72" cy="134.14" r="99.88"/><circle class="cls-53" cx="134.03" cy="133.45" r="99.88"/><circle class="cls-54" cx="133.34" cy="132.75" r="99.88"/><circle class="cls-55" cx="132.64" cy="132.06" r="99.88"/><circle class="cls-56" cx="131.95" cy="131.37" r="99.88"/></g><circle class="cls-57" cx="131.1" cy="130.52" r="104.34" transform="translate(-53.89 130.93) rotate(-45)"/><path class="cls-58" d="M131.1,236.55a106,106,0,1,1,106-106A106.15,106.15,0,0,1,131.1,236.55Zm0-208.67A102.64,102.64,0,1,0,233.74,130.52,102.75,102.75,0,0,0,131.1,27.88Z"/><path class="cls-59" d="M119,123.22a2,2,0,0,1,1.89-1.88c8.5,0,17.23.23,17.23-10.86V94.19c0-6.61-6.14-9-11.8-9-12.51,0-12,8-11.81,17.23a2,2,0,0,1-1.88,1.89H92.35a2,2,0,0,1-1.88-1.89V94c0-17.94,21.24-26.68,36.35-26.68,23.84,0,35.41,12,35.41,35.42,0,14.63,0,18.88-11.33,24.78a1.9,1.9,0,0,0-.24,3.31c12,6.37,11.57,12.51,11.57,27.15,0,24.79-9.68,37.53-36.12,37.53-26.2,0-35.17-11.33-35.64-35.41a2,2,0,0,1,1.88-1.89h20.31a2,2,0,0,1,1.88,1.89c-.23,9-.47,17.24,11.81,17.24,6.37,0,11.8-3.31,11.8-10.15V149.19c0-11.8-7.79-11.8-17.23-11.8A2,2,0,0,1,119,135.5Z"/></g></g></g></svg>