<svg xmlns="http://www.w3.org/2000/svg" xmlns:xlink="http://www.w3.org/1999/xlink" viewBox="0 0 504.13 398.42">
    <defs>
        <style>.cls-1,.cls-10,.cls-11,.cls-5,.cls-7{fill:none;}.cls-2{clip-path:url(#clip-path);}.cls-3{fill:#ffc1c6;}.cls-4{fill:#fe818b;}.cls-5{stroke:#2e1112;}.cls-5,.cls-7{stroke-linecap:round;stroke-linejoin:round;}.cls-6{fill:#fe5c5e;}.cls-7{stroke:#fff;}.cls-8{fill:#fff;}.cls-9{fill:#fe4642;}.cls-10{stroke:#fe4642;}.cls-10,.cls-11{stroke-miterlimit:10;stroke-width:2px;}.cls-11{stroke:#fe818b;}.cls-12{fill:#2e1112;}</style>
        <clipPath id="clip-path" transform="translate(35.86 103.78)">
            <rect class="cls-1" width="486.13" height="351.58"/>
        </clipPath>
    </defs>
    <g id="Layer_2" data-name="Layer 2">
        <g id="Layer_5" data-name="Layer 5">
            <g class="cls-2">
                <path class="cls-3" d="M305.44-.77l-212-2.07a40,40,0,0,0,5.72,39.78C108,47.87,125,53.56,138.81,51a57.06,57.06,0,0,0,95.74.85c6-9.14,10.91-21.17,21.63-23.42,7.76-1.63,15.44,2.82,23.34,3.52C295.91,33.36,310.59,14.86,305.44-.77Z" transform="translate(35.86 103.78)"/>
                <path class="cls-3" d="M1.53,115.16-7.69,232.67a77.54,77.54,0,0,0,32.32-56.58A77.52,77.52,0,0,0,1.53,115.16Z" transform="translate(35.86 103.78)"/>
                <polygon class="cls-4" points="123.7 46.16 113.52 43.97 111.33 54.16 101.15 51.97 98.96 62.15 88.78 59.96 86.59 70.14 76.41 67.95 74.22 78.14 64.04 75.95 61.85 86.13 51.67 83.94 49.48 94.12 39.3 91.93 37.11 102.11 26.93 99.93 24.74 110.11 14.56 107.92 12.37 118.1 2.19 115.91 0 126.09 84.27 256.51 94.45 258.69 96.64 248.51 106.82 250.7 109.01 240.52 119.19 242.71 121.38 232.53 131.56 234.72 133.75 224.53 143.93 226.72 146.12 216.54 156.3 218.73 158.49 208.55 168.67 210.74 170.86 200.55 181.04 202.74 183.23 192.56 193.41 194.75 195.6 184.57 205.78 186.75 207.97 176.57 123.7 46.16"/>
                <line class="cls-5" x1="2.17" y1="129.45" x2="125.87" y2="49.52"/>
                <line class="cls-5" x1="205.8" y1="173.22" x2="82.1" y2="253.15"/>
                <circle class="cls-6" cx="103.98" cy="151.33" r="62.43"/>
                <path class="cls-7" d="M44.17,10.48a44.15,44.15,0,0,0-13.12,61" transform="translate(35.86 103.78)"/>
                <path class="cls-5" d="M97.25,92.61a53.65,53.65,0,0,0,15.94-74.18" transform="translate(35.86 103.78)"/>
                <rect class="cls-8" x="141.23" y="44.79" width="40.98" height="3.39" rx="1.37" transform="translate(355.49 208.38) rotate(-175.83)"/>
                <path class="cls-8" d="M150.3,165.66l-.21,2.79a2.73,2.73,0,0,0,2.53,2.92h0a2.73,2.73,0,0,0,2.92-2.52l.21-2.79a4.14,4.14,0,0,1,3.14-3.68,17.34,17.34,0,0,0,13-15.53L179,49.44l-34.73-2.53-7.1,97.41a17.36,17.36,0,0,0,10.59,17.25A4.13,4.13,0,0,1,150.3,165.66Z" transform="translate(35.86 103.78)"/>
                <line class="cls-5" x1="180.09" y1="150.69" x2="214.82" y2="153.22"/>
                <path class="cls-5" d="M152.18,159.94a14.57,14.57,0,0,0,15.45-14.39" transform="translate(35.86 103.78)"/>
                <path class="cls-5" d="M147.74,58l-3.55,46" transform="translate(35.86 103.78)"/>
                <circle class="cls-3" cx="118.89" cy="320.75" r="34.7"/>
                <path class="cls-7" d="M91,185.23A32.72,32.72,0,0,0,51.29,209" transform="translate(35.86 103.78)"/>
                <path class="cls-7" d="M88.51,195.12A22.52,22.52,0,0,0,61.19,211.5" transform="translate(35.86 103.78)"/>
                <circle class="cls-5" cx="118.89" cy="320.75" r="28.96"/>
                <path class="cls-5" d="M80.27,216.28a2.85,2.85,0,1,0,3.46-2.07" transform="translate(35.86 103.78)"/>
                <path class="cls-9" d="M254.31,83.34a203.78,203.78,0,0,1-22.07-7.63,201.7,201.7,0,0,1-7.14,23l-2.9-5.87-5.9,2.6a190,190,0,0,0,7.24-23.73c-23.24-11.72-28.42-24-29.11-31.31a18.65,18.65,0,0,1,10.35-18.74A19,19,0,0,1,226.1,24.5c5.51,4.92,12.29,16.33,8.06,41.83a189.16,189.16,0,0,0,22.75,8l-5.8,3.09ZM205.42,33.13a9.35,9.35,0,0,0-1.64,6.4c.31,3.34,3,12.58,21.55,22.55,2.86-20.71-3-28.34-5.48-30.58A9.54,9.54,0,0,0,209,30.05,9.9,9.9,0,0,0,205.42,33.13Z" transform="translate(35.86 103.78)"/>
                <rect class="cls-3" x="326.92" y="-94" width="99.3" height="172.35" rx="4.55" transform="translate(50.94 -9.83) rotate(17.5)"/>
                <line class="cls-5" x1="480.03" y1="35.94" x2="432.79" y2="185.74"/>
                <circle class="cls-8" cx="403.07" cy="27.48" r="8.42"/>
                <path class="cls-5" d="M365.44-70.69a5.89,5.89,0,0,0,7.39-3.84" transform="translate(35.86 103.78)"/>
                <circle class="cls-8" cx="429.23" cy="35.72" r="8.42"/>
                <path class="cls-5" d="M391.6-62.44A5.89,5.89,0,0,0,399-66.29" transform="translate(35.86 103.78)"/>
                <circle class="cls-8" cx="455.39" cy="43.97" r="8.42"/>
                <path class="cls-5" d="M417.76-54.19A5.89,5.89,0,0,0,425.15-58" transform="translate(35.86 103.78)"/>
                <circle class="cls-8" cx="393.92" cy="56.49" r="8.42"/>
                <path class="cls-5" d="M356.29-41.67a5.89,5.89,0,0,0,7.39-3.85" transform="translate(35.86 103.78)"/>
                <circle class="cls-8" cx="420.08" cy="64.74" r="8.42"/>
                <path class="cls-5" d="M382.45-33.42a5.89,5.89,0,0,0,7.39-3.85" transform="translate(35.86 103.78)"/>
                <circle class="cls-8" cx="446.24" cy="72.99" r="8.42"/>
                <path class="cls-5" d="M408.61-25.17A5.9,5.9,0,0,0,416-29" transform="translate(35.86 103.78)"/>
                <circle class="cls-8" cx="384.77" cy="85.51" r="8.42"/>
                <path class="cls-5" d="M347.14-12.65a5.89,5.89,0,0,0,7.39-3.85" transform="translate(35.86 103.78)"/>
                <circle class="cls-8" cx="410.93" cy="93.76" r="8.42"/>
                <path class="cls-5" d="M373.3-4.4a5.9,5.9,0,0,0,7.39-3.85" transform="translate(35.86 103.78)"/>
                <circle class="cls-8" cx="437.08" cy="102.01" r="8.42"/>
                <path class="cls-5" d="M399.46,3.85A5.9,5.9,0,0,0,406.85,0" transform="translate(35.86 103.78)"/>
                <circle class="cls-8" cx="375.62" cy="114.53" r="8.42"/>
                <path class="cls-5" d="M338,16.37a5.9,5.9,0,0,0,7.39-3.85" transform="translate(35.86 103.78)"/>
                <circle class="cls-8" cx="401.77" cy="122.78" r="8.42"/>
                <path class="cls-5" d="M364.15,24.62a5.9,5.9,0,0,0,7.39-3.85" transform="translate(35.86 103.78)"/>
                <circle class="cls-8" cx="427.93" cy="131.03" r="8.42"/>
                <path class="cls-5" d="M390.31,32.87A5.9,5.9,0,0,0,397.7,29" transform="translate(35.86 103.78)"/>
                <circle class="cls-8" cx="366.46" cy="143.55" r="8.42"/>
                <path class="cls-5" d="M328.84,45.39a5.9,5.9,0,0,0,7.39-3.85" transform="translate(35.86 103.78)"/>
                <circle class="cls-8" cx="392.62" cy="151.8" r="8.42"/>
                <path class="cls-5" d="M355,53.63a5.89,5.89,0,0,0,7.39-3.84" transform="translate(35.86 103.78)"/>
                <circle class="cls-8" cx="418.78" cy="160.05" r="8.42"/>
                <path class="cls-5" d="M381.16,61.88A5.89,5.89,0,0,0,388.55,58" transform="translate(35.86 103.78)"/>
                <path class="cls-6" d="M103.42,170c22.3-16.53-.69-36.53-6.13-18.78h0c-14.88-11.12-21.7,18.61,6.13,18.79Z" transform="translate(35.86 103.78)"/>
                <path class="cls-10" d="M27.57,292.24,15.78,275.38a2.64,2.64,0,0,1,1.45-4.05h0A2.64,2.64,0,0,1,20.57,274l-1.35,20.53" transform="translate(35.86 103.78)"/>
                <path class="cls-10" d="M434.62,46.17l7.16-19.29a2.63,2.63,0,0,1,4.15-1.11h0a2.64,2.64,0,0,1-.33,4.29L428,40.63" transform="translate(35.86 103.78)"/>
                <line class="cls-11" x1="306.46" y1="162.06" x2="315.87" y2="150.73"/>
                <line class="cls-11" x1="305.5" y1="151.69" x2="316.83" y2="161.1"/>
                <circle class="cls-12" cx="84.19" cy="289.11" r="1.55"/>
                <circle class="cls-12" cx="166.42" cy="277.7" r="1.55"/>
                <circle class="cls-12" cx="332.13" cy="146.04" r="1.55"/>
                <circle class="cls-3" cx="231.63" cy="204.76" r="1.55"/>
                <circle class="cls-12" cx="502.58" cy="136.92" r="1.55"/>
                <circle class="cls-12" cx="77.41" cy="368.07" r="1.55"/>
                <polygon class="cls-3" points="69.9 332.63 60.85 329.77 62.9 339.04 69.9 332.63"/>
                <polygon class="cls-12" points="335.89 181.16 326.73 183.62 333.44 190.33 335.89 181.16"/>
            </g>
        </g>
    </g>
</svg>