<?xml version="1.0" encoding="utf-8"?>
<!-- Generator: Adobe Illustrator 25.4.1, SVG Export Plug-In . SVG Version: 6.00 Build 0)  -->
<svg version="1.1" id="Layer_1" xmlns="http://www.w3.org/2000/svg" xmlns:xlink="http://www.w3.org/1999/xlink" x="0px" y="0px"
	 viewBox="0 0 1154.04 442.21" style="enable-background:new 0 0 1154.04 442.21;" xml:space="preserve">
<style type="text/css">
	.st0{fill:#9F1A1A;stroke:#9F1A1A;stroke-width:0.2835;stroke-miterlimit:10;}
	.st1{fill:none;stroke:#FDFDFD;stroke-width:0.2835;stroke-miterlimit:10;}
	.st2{fill:#FFFFFF;stroke:#9F1A1A;stroke-width:2.8346;stroke-miterlimit:10;}
	.st3{fill:#9F1A1A;}
	.st4{font-family:'Gilroy-ExtraBold';}
	.st5{font-size:200px;}
</style>
<g>
	<path class="st0" d="M139.41,322.33l-99.58,0.02c0,0-15.77-4.9-5.09-19.2l16.62-17.48c0,0,2.89-2.49,2.62-11.41l0.27-46.2
		c0,0,2.05-67.68,18.82-86.12c0,0,18.69-28.11,66.84-28.41"/>
	<path class="st0" d="M111.98,110.26c0,0,37.82-4.68,53.16,0V94.07c0,0,1.07-16.95-14.99-17.31s-21.05,0-21.05,0
		s-15.31,1.8-17.13,14.05S111.98,110.26,111.98,110.26z"/>
	<path class="st0" d="M107.09,330.26c0,0,2.5,31.34,34.25,32.06c31.76,0.72,39.25-24.14,41.03-32.06H107.09z"/>
	<path class="st0" d="M138.91,322.33l99.58,0.02c0,0,15.77-4.9,5.09-19.2l-16.62-17.48c0,0-2.89-2.49-2.62-11.41l-0.27-46.2
		c0,0-2.05-67.68-18.82-86.12c0,0-18.69-28.11-66.84-28.41"/>
	<path class="st1" d="M114.24,226.22"/>
</g>
<path class="st2" d="M103.02,155.76c0,0-15.07,18.9-9.17,37c0,0,3.34,8.64,5.7,12.47c0,0,1.57,6.86,15.47,24.05
	s89.62,92.37,89.62,92.37l33.85,0.01c0,0,15.64-4.05,5.09-19.02l-77.07-80.53L103.02,155.76z"/>
<path class="st2" d="M53.85,282.13l-18.41,18.62c0,0-12.57,14.33,4.78,20.91h34.09c0,0,61.22-57.96,65.82-64.7l24.56-28.1
	l12.06-17.01l6.76-11.19c0,0,5.97-11.36,4.11-16.43c0,0-2.14-18.99-10.49-26.5c0,0-10.21,16.4-13.72,20.8s-22.84,25.95-22.84,25.95
	L100.99,243L53.85,282.13z"/>
<path class="st2" d="M187.62,184.38c-1.12-8.11-2.21-14.84-3.04-19.69c-3.41-19.88-6.38-29.57-9.27-33.56
	c-10.68-14.68-36.05-20.77-53.78-11.87c-8.9,4.46-13.9,11.71-16.41,15.34c-8.17,11.83-9.46,23.9-9.69,29.5
	c1.33-2.36,3.06-4.98,5.29-7.65c4.83-5.77,10.09-9.43,14.03-11.68c3.3-1.43,7.24-2.8,11.77-3.75c12.12-2.54,22.49-0.85,28.9,0.8
	c1.88,0.89,3.82,1.88,5.8,2.99c4.95,2.77,9.22,5.72,12.84,8.59C174.05,153.41,184.32,166.01,187.62,184.38z"/>
<text transform="matrix(1 0 0 1 261.6751 285.7864)" class="st3 st4 st5">SIDABELL</text>
</svg>
